<svg xmlns="http://www.w3.org/2000/svg" viewBox="0 0 18.38 15.2"><defs><style>.cls-1{fill:#fff;}</style></defs><title>MUSEUS</title><g id="Camada_2" data-name="Camada 2"><g id="Camada_4" data-name="Camada 4"><path class="cls-1" d="M.22,3.68H18.38a0,0,0,0,1,0,0V4.5a.78.78,0,0,1-.78.78H1A.78.78,0,0,1,.19,4.5V3.71a0,0,0,0,1,0,0Z"/><rect class="cls-1" x="13.69" y="5.07" width="3.37" height="8.5"/><rect class="cls-1" x="7.6" y="5.07" width="3.37" height="8.5"/><rect class="cls-1" x="1.58" y="5.07" width="3.37" height="8.5"/><polygon class="cls-1" points="9.29 0 0.19 3.68 18.38 3.68 9.29 0"/><path class="cls-1" d="M1.56,11.55H16.82a1.56,1.56,0,0,1,1.56,1.56V15.2a0,0,0,0,1,0,0H0a0,0,0,0,1,0,0V13.11A1.56,1.56,0,0,1,1.56,11.55Z"/></g></g></svg>