<svg xmlns="http://www.w3.org/2000/svg" viewBox="0 0 16.59 15.2"><defs><style>.cls-1{fill:#fff;}</style></defs><title>PREDIOS</title><g id="Camada_2" data-name="Camada 2"><g id="Camada_4" data-name="Camada 4"><path class="cls-1" d="M15.19,0H1.41A1.48,1.48,0,0,0,0,1.56V15.2H16.59V1.56A1.48,1.48,0,0,0,15.19,0ZM5.56,9.88a.61.61,0,0,1-.58.64H3.11a.62.62,0,0,1-.59-.64V7.8a.62.62,0,0,1,.59-.65H5a.62.62,0,0,1,.58.65Zm0-4.65A.61.61,0,0,1,5,5.87H3.11a.62.62,0,0,1-.59-.64V3.15a.61.61,0,0,1,.59-.64H5a.61.61,0,0,1,.58.64ZM9.85,9.88a.62.62,0,0,1-.59.64H7.39a.61.61,0,0,1-.58-.64V7.8a.62.62,0,0,1,.58-.65H9.26a.62.62,0,0,1,.59.65Zm0-4.65a.62.62,0,0,1-.59.64H7.39a.61.61,0,0,1-.58-.64V3.15a.61.61,0,0,1,.58-.64H9.26a.61.61,0,0,1,.59.64Zm4.29,4.65a.62.62,0,0,1-.59.64H11.67a.61.61,0,0,1-.57-.64V7.8a.62.62,0,0,1,.57-.65h1.88a.62.62,0,0,1,.59.65Zm0-4.65a.62.62,0,0,1-.59.64H11.67a.61.61,0,0,1-.57-.64V3.15a.61.61,0,0,1,.57-.64h1.88a.61.61,0,0,1,.59.64Z"/></g></g></svg>