<svg xmlns="http://www.w3.org/2000/svg" viewBox="0 0 371.64 148.98"><defs><style>.cls-1{fill:#5b795b;}.cls-2{fill:#1d1d1b;}.cls-3{fill:#d1a626;}.cls-4{fill:#c5653a;}.cls-5{fill:#a93d47;}.cls-6{font-size:45.46px;fill:#575756;font-family:FuturaBT-Medium, Futura Md BT;font-weight:500;}.cls-7{letter-spacing:-0.04em;}.cls-8{font-size:40px;font-family:FuturaBT-Light, Futura Lt BT;font-weight:300;}</style></defs><title>logo</title><g id="Camada_2" data-name="Camada 2"><g id="Camada_2-2" data-name="Camada 2"><path class="cls-1" d="M108.22.67H90.47C73.81.67,66.71,18,66.22,22.37s-2.56,17.87,19.66,24,30.63-5.36,36-8.17S138.22,28,151.75,39.73,148.94,77,138.47,84.16s-30.13,20.94-59,11.49S51.15,75.48,19,90.54,3.76,133.63,10.67,140s18,8.73,28,8.82c-3.22-2.82-4.2-6.45-5.66-9.66-2.22-4.85,0-7.75-8.18-13.79s-11.23-14.55-9.27-21.19S20,93.61,28.43,91.73s33.7,9,44.68,15.49,25,9.88,32.51,10.39,15.83-1.88,24.09-8.77,7.4-17.87,24.68-23.66a30.63,30.63,0,0,0,14-9.46l.1-.12c5.36-6.46,6.8-13.62,6.8-15.7,0-3.32.85-32.08-13.61-35.91s-10.3,1.62-20.51,3.49-14.13-2.64-17-4.51-7.32-6-14.12-2.73-3.83,9.11-7.41,13.45-4.51,2.38-12.42,0S79.49,23.14,80,17.1,88.09,7.9,92.34,8,104.92,8.72,108.22.67Z"/><rect class="cls-2" x="122.17" y="57.11" width="9.7" height="9.7" transform="translate(260.65 15.96) rotate(135)"/><path class="cls-3" d="M168.42,75.72a30.63,30.63,0,0,1-14,9.46C137.11,91,138,102,129.71,108.84s-16.6,9.28-24.09,8.77-21.53-3.92-32.51-10.39S36.85,89.86,28.43,91.73s-10.89,5.79-12.85,12.43,1.1,15.15,9.27,21.19,6,8.94,8.18,13.79c1.46,3.21,2.44,6.84,5.66,9.66,18.19.31,46.18.18,72.85-.08-7.13-6.83-7.22-10.09-6.6-14.77.68-5.11.85-11.92,9.53-12.43s13.79,5.45,21.79,2.72,9.19-7.31,12.94-14.63,5.78-9.71,16.17-7.83,12.08-4.09,12.25-8.51-2.38-11.75-4.94-14.47C170.54,76.51,169.67,76,168.42,75.72Z"/><path class="cls-4" d="M115.05.67h-6.83C104.92,8.72,96.47,8.07,92.34,8S80.51,11.05,80,17.1s2.3,14.21,10.22,16.59,8.85,4.34,12.42,0,.6-10.13,7.41-13.45,11.23.86,14.12,2.73,6.81,6.38,17,4.51,6-7.32,20.51-3.49,13.61,32.59,13.61,35.91c0,2.08-1.44,9.24-6.8,15.7L185.2,76V32.24c-5.23-.42-8.93-2.59-11.32-9.61-2.73-8-2.22-16.85-9.71-19.41s-16-1.36-20.76,5.45-8.78,10.38-16.39,10-11.19-6.47-12.21-9.36A16.06,16.06,0,0,1,115.05.67Z"/><path class="cls-4" d="M168.52,75.6l0,.14c1.21.26,2.09.83,4.18,3.06,2.56,2.72,5.11,10,4.94,14.47s-1.87,10.38-12.25,8.51-12.43.51-16.17,7.83-4.94,11.91-12.94,14.63-13.11-3.23-21.79-2.72-8.85,7.32-9.53,12.43c-.62,4.68-.53,7.94,6.6,14.77h0c1.17,0,2.33,0,3.49,0,18.44-.18,36-.42,48.94-.62a21.53,21.53,0,0,0,21.22-21.54V76Z"/><path class="cls-5" d="M169.85.67h-54.8a16.06,16.06,0,0,0-.24,8.68c1,2.89,4.6,9,12.21,9.36s11.62-3.23,16.39-10,13.27-8,20.76-5.45,7,11.41,9.71,19.41c2.39,7,6.09,9.19,11.32,9.61V16A15.36,15.36,0,0,0,169.85.67Z"/><text class="cls-6" transform="translate(194.49 38.98)"><tspan class="cls-7">P</tspan><tspan x="22.57" y="0">erceba </tspan><tspan x="0" y="47">a Arte</tspan><tspan class="cls-8"><tspan x="0" y="100">Cuaso</tspan></tspan></text></g></g></svg>